<svg width="697" height="146" viewBox="0 0 697 146" fill="none" xmlns="http://www.w3.org/2000/svg">
<path d="M90.624 120.448C88.2347 120.448 86.2293 119.424 84.608 117.376C82.9867 115.413 81.792 112.981 81.024 110.08C80.256 107.179 79.872 104.405 79.872 101.76C79.872 96.64 80.5973 90.9653 82.048 84.736C83.4987 78.5067 85.2907 72.1493 87.424 65.664C89.6427 59.1787 91.904 52.9493 94.208 46.976C96.5973 40.9173 98.7307 35.456 100.608 30.592C102.485 25.728 103.808 21.8453 104.576 18.944C104.747 18.176 104.875 17.4933 104.96 16.896C105.045 16.2133 105.088 15.6587 105.088 15.232C105.088 13.696 104.619 12.928 103.68 12.928C102.315 12.928 100.267 14.336 97.536 17.152C94.8053 19.8827 91.7333 23.6373 88.32 28.416C84.992 33.1093 81.664 38.4427 78.336 44.416C75.008 50.3893 72.0213 56.576 69.376 62.976C66.816 69.2907 65.024 75.4773 64 81.536C63.6587 83.7547 63.0613 85.4187 62.208 86.528C61.44 87.6373 60.672 88.192 59.904 88.192C59.2213 88.192 58.624 87.7653 58.112 86.912C57.6 86.0587 57.344 84.8213 57.344 83.2C57.2587 76.3733 57.0453 69.5467 56.704 62.72C56.3627 55.808 55.5947 49.1947 54.4 42.88C52.608 33.152 50.56 26.24 48.256 22.144C46.0373 18.048 43.7333 16 41.344 16C39.1253 16 36.9493 17.3653 34.816 20.096C32.768 22.7413 30.8053 26.2827 28.928 30.72C27.0507 35.072 25.3867 39.8507 23.936 45.056C22.4853 50.2613 21.3333 55.424 20.48 60.544C19.712 65.664 19.328 70.2293 19.328 74.24C19.328 75.1787 19.328 76.1173 19.328 77.056C19.4133 77.9093 19.4987 78.72 19.584 79.488C19.6693 79.9147 19.712 80.384 19.712 80.896C19.712 81.3227 19.712 81.7493 19.712 82.176C19.712 84.1387 19.456 85.888 18.944 87.424C18.432 88.96 17.8347 89.728 17.152 89.728C16.4693 89.728 15.8293 88.96 15.232 87.424C14.5493 85.888 13.9947 83.968 13.568 81.664C13.1413 79.2747 12.8 77.2693 12.544 75.648C12.3733 74.4533 11.9893 72.6613 11.392 70.272C10.88 67.8827 10.24 65.28 9.47201 62.464C8.70401 59.5627 7.80801 56.7467 6.78401 54.016C5.84534 51.2 4.82134 48.8107 3.71201 46.848C2.60268 44.8 1.45068 43.4773 0.256009 42.88C0.0853426 42.7093 9.28342e-06 42.5387 9.28342e-06 42.368C9.28342e-06 41.9413 0.426676 41.6853 1.28001 41.6C2.21868 41.5147 2.85868 41.5573 3.20001 41.728C4.99201 42.24 6.57068 43.52 7.93601 45.568C9.38668 47.5307 10.624 49.8773 11.648 52.608C12.7573 55.2533 13.696 57.8987 14.464 60.544C15.232 63.104 15.872 65.2373 16.384 66.944C17.3227 61.056 18.432 55.2533 19.712 49.536C21.0773 43.7333 22.8693 38.0587 25.088 32.512C28.2453 24.832 31.36 19.3707 34.432 16.128C37.504 12.8 40.4053 11.136 43.136 11.136C46.0373 11.136 48.64 12.6293 50.944 15.616C53.3333 18.5173 55.3387 22.4 56.96 27.264C58.6667 32.0427 59.8187 37.248 60.416 42.88C60.7573 45.7813 60.9707 48.9387 61.056 52.352C61.1413 55.68 61.184 58.9653 61.184 62.208V72.192C61.184 73.6427 61.184 74.9653 61.184 76.16C61.184 77.3547 61.2267 78.336 61.312 79.104C61.9093 77.056 62.8907 74.1973 64.256 70.528C65.6213 66.7733 67.2853 62.592 69.248 57.984C71.2107 53.2907 73.4293 48.4693 75.904 43.52C78.3787 38.5707 81.024 33.8347 83.84 29.312C86.7413 24.704 89.728 20.6933 92.8 17.28C95.9573 13.7813 99.1147 11.2213 102.272 9.6C104.149 8.66133 105.899 8.19199 107.52 8.19199C109.397 8.19199 110.976 8.74666 112.256 9.856C113.536 10.88 114.176 12.416 114.176 14.464C114.176 17.536 113.536 20.608 112.256 23.68C110.976 26.6667 109.44 29.6107 107.648 32.512C105.856 35.4133 104.192 38.2293 102.656 40.96C99.9253 45.9093 97.1947 51.6267 94.464 58.112C91.7333 64.5973 89.4293 71.296 87.552 78.208C85.76 85.12 84.864 91.776 84.864 98.176C84.864 100.224 84.9493 102.229 85.12 104.192C85.376 106.155 85.76 108.032 86.272 109.824C87.04 112.555 87.9787 114.432 89.088 115.456C90.2827 116.565 91.4773 117.12 92.672 117.12C93.952 117.12 95.1467 116.736 96.256 115.968C97.3653 115.285 98.2613 114.517 98.944 113.664C99.6267 112.896 99.9253 112.427 99.84 112.256C100.608 112 100.907 112.213 100.736 112.896C100.565 113.664 100.224 114.432 99.712 115.2C99.2 116.053 98.8587 116.565 98.688 116.736C95.7013 119.211 93.0133 120.448 90.624 120.448ZM116.568 98.432C114.264 98.432 112.173 97.6213 110.296 96C108.931 94.8053 107.949 93.3973 107.352 91.776C106.755 90.1547 106.456 88.4053 106.456 86.528C106.456 85.0773 106.584 83.6267 106.84 82.176C107.181 80.64 107.565 79.1893 107.992 77.824C108.589 75.9467 109.357 74.24 110.296 72.704C111.235 71.168 112.045 69.9733 112.728 69.12C113.155 67.1573 113.965 64.8533 115.16 62.208C116.355 59.5627 117.805 57.0027 119.512 54.528C121.304 52.0533 123.309 50.0053 125.528 48.384C127.747 46.6773 130.051 45.824 132.44 45.824C135.256 45.824 137.688 47.104 139.736 49.664C141.869 52.1387 143.107 55.808 143.448 60.672C143.448 61.0133 143.448 61.3547 143.448 61.696C143.533 62.0373 143.576 62.4213 143.576 62.848C143.576 67.712 142.381 72.576 139.992 77.44C137.688 82.2187 134.915 86.3147 131.672 89.728C129.795 91.776 127.491 93.7387 124.76 95.616C122.029 97.4933 119.299 98.432 116.568 98.432ZM117.208 95.744C119.512 95.744 121.987 94.6773 124.632 92.544C127.619 90.1547 130.179 87.1253 132.312 83.456C134.445 79.7867 136.109 75.904 137.304 71.808C138.584 67.6267 139.352 63.5733 139.608 59.648C139.779 57.4293 139.48 55.296 138.712 53.248C137.944 51.2 136.323 49.8773 133.848 49.28C133.165 49.1093 132.611 49.024 132.184 49.024C130.563 49.024 128.899 49.536 127.192 50.56C125.571 51.584 124.077 52.864 122.712 54.4C121.432 55.936 120.408 57.472 119.64 59.008C118.957 60.4587 118.659 61.6533 118.744 62.592C119.256 62.08 120.109 61.3547 121.304 60.416C122.584 59.392 123.992 58.4533 125.528 57.6C127.064 56.7467 128.387 56.32 129.496 56.32C130.349 56.32 130.947 56.576 131.288 57.088C131.544 57.2587 131.587 57.6 131.416 58.112C130.307 57.7707 129.027 57.984 127.576 58.752C126.211 59.52 124.803 60.5867 123.352 61.952C121.987 63.3173 120.749 64.6827 119.64 66.048C118.531 67.4133 117.72 68.48 117.208 69.248C116.867 69.5893 116.483 70.016 116.056 70.528C115.715 71.04 115.501 71.5947 115.416 72.192C115.331 72.3627 115.288 72.7467 115.288 73.344C115.288 74.4533 115.629 75.8187 116.312 77.44C117.08 79.0613 118.445 80.512 120.408 81.792C122.371 83.072 125.101 83.7973 128.6 83.968C128.685 84.0533 128.728 84.1387 128.728 84.224C128.728 84.5653 128.387 84.8213 127.704 84.992C127.107 85.0773 126.723 85.12 126.552 85.12C126.296 85.2053 126.04 85.248 125.784 85.248C125.528 85.248 125.272 85.248 125.016 85.248C122.115 85.248 119.725 84.1813 117.848 82.048C115.971 79.8293 114.563 77.3973 113.624 74.752C111.491 79.36 110.424 83.4133 110.424 86.912C110.424 89.728 111.064 91.904 112.344 93.44C113.624 94.976 115.245 95.744 117.208 95.744ZM161.789 118.4C159.826 118.4 158.333 117.589 157.309 115.968C156.37 114.347 155.901 112.469 155.901 110.336C155.901 107.776 156.37 104.832 157.309 101.504C158.333 98.2613 159.57 94.9333 161.021 91.52C162.472 88.0213 163.965 84.6507 165.501 81.408C167.122 78.1653 168.53 75.264 169.725 72.704C171.005 70.144 171.858 68.1813 172.285 66.816C172.797 65.28 173.053 64.128 173.053 63.36C173.053 62.5067 172.754 62.08 172.157 62.08C171.474 62.08 170.45 62.6347 169.085 63.744C167.805 64.768 166.525 65.92 165.245 67.2C164.05 68.48 163.197 69.4187 162.685 70.016C159.954 73.088 157.48 76.5013 155.261 80.256C153.128 84.0107 151.805 87.2107 151.293 89.856C151.208 90.2827 151.037 91.0507 150.781 92.16C150.61 93.2693 150.226 93.7813 149.629 93.696C148.776 93.5253 148.178 93.0133 147.837 92.16C147.581 91.2213 147.41 90.368 147.325 89.6C147.325 89.1733 147.282 88.7467 147.197 88.32C147.197 87.808 147.197 87.296 147.197 86.784C147.197 82.6027 147.666 77.8667 148.605 72.576C149.544 67.2853 150.738 61.8667 152.189 56.32C153.725 50.7733 155.346 45.6107 157.053 40.832C158.76 36.0533 160.381 32.0853 161.917 28.928C162.685 27.392 163.538 25.9413 164.477 24.576C165.416 23.1253 166.354 22.4 167.293 22.4C167.89 22.4 168.402 22.6987 168.829 23.296C169.341 23.8933 169.597 24.4053 169.597 24.832C169.597 25.1733 169 26.5387 167.805 28.928C166.696 31.232 165.245 34.304 163.453 38.144C161.661 41.8987 159.826 46.208 157.949 51.072C156.157 55.936 154.536 61.1413 153.085 66.688C151.634 72.2347 150.653 77.8667 150.141 83.584C150.141 83.6693 150.098 84.096 150.013 84.864C149.928 85.632 149.842 86.4 149.757 87.168C149.757 87.936 149.757 88.32 149.757 88.32V88.192H149.885C150.056 87.168 150.354 86.1867 150.781 85.248C151.293 84.3093 151.805 83.4133 152.317 82.56C154.877 77.44 158.162 72.5333 162.173 67.84C164.136 65.6213 166.184 63.7013 168.317 62.08C170.45 60.3733 172.669 59.52 174.973 59.52C175.912 59.52 176.722 59.776 177.405 60.288C178.088 60.8 178.429 61.7813 178.429 63.232C178.429 65.1093 177.789 67.328 176.509 69.888C175.314 72.3627 173.821 74.9653 172.029 77.696C170.322 80.3413 168.744 82.8587 167.293 85.248C165.33 88.576 163.538 92.1173 161.917 95.872C160.381 99.5413 159.613 103.381 159.613 107.392C159.613 108.587 159.698 109.867 159.869 111.232C160.125 112.597 160.509 113.749 161.021 114.688C161.618 115.712 162.429 116.224 163.453 116.224C164.136 116.224 164.776 116.011 165.373 115.584C166.056 115.243 166.61 114.901 167.037 114.56C167.805 113.792 168.317 113.408 168.573 113.408C168.829 113.408 168.957 113.536 168.957 113.792C168.957 114.304 168.744 114.773 168.317 115.2C167.89 115.712 167.464 116.096 167.037 116.352C166.44 116.864 165.629 117.333 164.605 117.76C163.666 118.187 162.728 118.4 161.789 118.4ZM181.549 102.016C179.501 102.016 177.965 101.12 176.941 99.328C175.917 97.6213 175.405 95.4453 175.405 92.8C175.405 90.9227 175.789 88.576 176.557 85.76C177.325 82.944 178.392 80 179.757 76.928C181.122 73.856 182.658 70.9973 184.365 68.352C186.072 65.6213 187.821 63.4453 189.613 61.824C191.49 60.1173 193.325 59.264 195.117 59.264C196.568 59.264 197.592 59.8187 198.189 60.928C198.872 61.952 199.213 63.0613 199.213 64.256C199.213 65.28 199 66.2187 198.573 67.072C198.232 67.84 197.72 68.224 197.037 68.224C196.354 68.224 195.842 67.9253 195.501 67.328C195.245 66.6453 194.989 65.9627 194.733 65.28C194.562 64.5973 194.093 64.256 193.325 64.256C191.789 64.256 190.253 65.2373 188.717 67.2C187.181 69.1627 185.773 71.6373 184.493 74.624C183.213 77.6107 182.189 80.7253 181.421 83.968C180.653 87.1253 180.269 89.9413 180.269 92.416C180.269 94.208 180.482 95.616 180.909 96.64C181.421 97.7493 182.232 98.304 183.341 98.304C184.792 98.304 186.242 97.408 187.693 95.616C189.229 93.7387 190.722 91.3493 192.173 88.448C193.624 85.4613 194.946 82.3467 196.141 79.104C197.421 75.8613 198.488 72.832 199.341 70.016C200.28 67.1147 201.005 64.8107 201.517 63.104C202.2 57.1307 203.01 51.1147 203.949 45.056C204.973 38.9973 206.466 33.1093 208.429 27.392C208.685 26.4533 209.069 25.6427 209.581 24.96C210.178 24.2773 210.776 23.936 211.373 23.936C212.056 23.936 212.61 24.4053 213.037 25.344C213.549 26.2827 213.805 27.3493 213.805 28.544C213.805 29.4827 213.634 30.464 213.293 31.488C212.952 32.512 212.525 33.8773 212.013 35.584C211.416 37.632 210.648 40.3627 209.709 43.776C208.856 47.104 207.96 50.9013 207.021 55.168C206.082 59.3493 205.272 63.8293 204.589 68.608C203.992 73.3013 203.693 77.9947 203.693 82.688C203.693 86.272 203.949 88.7893 204.461 90.24C204.973 91.6907 205.656 92.416 206.509 92.416C207.448 92.416 208.472 91.8187 209.581 90.624C210.776 89.4293 211.928 87.9787 213.037 86.272C214.232 84.5653 215.298 82.8587 216.237 81.152C217.176 79.36 217.901 77.952 218.413 76.928C219.352 75.0507 220.077 74.112 220.589 74.112C220.93 74.112 221.101 74.496 221.101 75.264C221.101 75.8613 220.973 76.5013 220.717 77.184C220.205 78.2933 219.864 79.1467 219.693 79.744C219.522 80.256 219.309 80.768 219.053 81.28C218.882 81.792 218.456 82.6027 217.773 83.712C217.176 84.736 216.237 86.144 214.957 87.936C213.677 89.6427 212.226 91.2213 210.605 92.672C208.984 94.0373 207.362 94.72 205.741 94.72C204.12 94.72 202.882 94.0373 202.029 92.672C201.261 91.3067 200.749 89.5573 200.493 87.424C200.322 85.2053 200.237 82.944 200.237 80.64C200.237 77.824 200.365 74.8373 200.621 71.68C200.024 73.728 199.213 76.16 198.189 78.976C197.165 81.7067 196.013 84.48 194.733 87.296C193.453 90.112 192.088 92.672 190.637 94.976C189.442 96.8533 188.12 98.4747 186.669 99.84C185.218 101.291 183.512 102.016 181.549 102.016ZM232.662 125.312C230.785 125.397 229.334 125.056 228.31 124.288C227.201 123.52 226.817 122.069 227.158 119.936C227.158 119.68 227.243 119.296 227.414 118.784C227.585 118.272 227.798 117.931 228.054 117.76C227.969 119.893 228.225 121.387 228.822 122.24C229.419 123.093 230.401 123.52 231.766 123.52C235.094 123.52 238.507 122.453 242.006 120.32C245.59 118.187 249.131 115.328 252.63 111.744C251.777 111.488 250.667 110.976 249.302 110.208C248.022 109.525 247.041 108.971 246.358 108.544C242.945 106.069 241.238 103.211 241.238 99.968C241.238 97.4933 242.347 94.8053 244.566 91.904C246.785 89.0027 250.411 86.0587 255.446 83.072C258.689 81.1093 262.443 79.36 266.71 77.824C270.977 76.288 274.945 75.0507 278.614 74.112C279.894 71.6373 281.131 69.2053 282.326 66.816C283.521 64.4267 284.673 62.0373 285.782 59.648C286.209 58.7093 286.977 56.9173 288.086 54.272C289.195 51.6267 290.433 48.512 291.798 44.928C293.163 41.344 294.443 37.5467 295.638 33.536C296.918 29.44 297.985 25.472 298.838 21.632C299.691 17.792 300.118 14.3787 300.118 11.392C300.118 8.49066 299.606 6.22933 298.582 4.60799C297.643 2.98666 295.937 2.17599 293.462 2.17599H293.334C292.651 2.17599 292.31 1.96266 292.31 1.536C292.31 1.10933 292.737 0.810661 293.59 0.639992C297.686 0.213326 300.545 1.19466 302.166 3.58399C303.787 5.97333 304.598 9.13067 304.598 13.056C304.598 13.7387 304.555 14.464 304.47 15.232C304.47 16 304.427 16.8107 304.342 17.664C304.854 18.0907 305.195 18.816 305.366 19.84C305.878 22.5707 306.39 26.1547 306.902 30.592C307.499 35.0293 308.182 39.8933 308.95 45.184C309.718 50.4747 310.614 55.8507 311.638 61.312C312.747 66.688 314.027 71.7653 315.478 76.544C317.014 81.2373 318.806 85.2053 320.854 88.448C321.281 89.1307 321.878 90.0267 322.646 91.136C323.414 92.16 324.353 93.0987 325.462 93.952C326.571 94.8053 327.809 95.232 329.174 95.232C330.625 95.232 332.118 94.6347 333.654 93.44C335.019 92.3307 336.299 90.7947 337.494 88.832C338.689 86.8693 339.798 84.7787 340.822 82.56C341.334 81.6213 341.803 81.152 342.23 81.152C342.657 81.152 342.955 81.408 343.126 81.92C343.382 82.3467 343.467 82.7733 343.382 83.2C343.041 84.3093 342.315 85.632 341.206 87.168C340.182 88.6187 339.115 89.984 338.006 91.264C336.897 92.4587 336.001 93.312 335.318 93.824C333.782 95.0187 332.289 95.872 330.838 96.384C329.473 96.9813 328.193 97.28 326.998 97.28C324.182 97.28 321.707 96.2133 319.574 94.08C317.526 91.8613 315.734 89.5573 314.198 87.168C312.065 83.7547 310.358 79.4453 309.078 74.24C307.883 69.0347 306.945 63.4027 306.262 57.344C305.579 51.2853 305.025 45.312 304.598 39.424C304.257 33.536 303.873 28.16 303.446 23.296C302.422 28.0747 301.014 32.9813 299.222 38.016C297.43 43.0507 295.595 47.7013 293.718 51.968C291.926 56.1493 290.433 59.392 289.238 61.696C287.361 65.536 285.313 69.376 283.094 73.216C287.019 72.2773 291.115 71.424 295.382 70.656C299.649 69.888 303.403 69.1627 306.646 68.48H307.03C307.371 68.48 307.542 68.608 307.542 68.864C307.542 69.12 307.329 69.4613 306.902 69.888C306.475 70.3147 305.921 70.6133 305.238 70.784C301.569 71.4667 297.601 72.2773 293.334 73.216C289.067 74.0693 285.057 75.008 281.302 76.032C277.377 82.7733 273.409 89.1733 269.398 95.232C265.387 101.291 260.993 106.667 256.214 111.36C259.457 112.384 263.595 112.896 268.63 112.896H268.886C269.569 112.896 269.91 113.067 269.91 113.408C269.91 113.92 269.398 114.176 268.374 114.176C265.985 114.261 263.638 114.133 261.334 113.792C259.03 113.536 256.897 113.109 254.934 112.512C251.179 116.181 247.382 119.125 243.542 121.344C239.787 123.648 236.161 124.971 232.662 125.312ZM253.91 110.464C258.006 106.197 261.974 101.205 265.814 95.488C269.739 89.7707 273.409 83.7973 276.822 77.568C275.713 77.9093 274.561 78.2933 273.366 78.72C272.171 79.1467 271.019 79.6587 269.91 80.256C268.459 80.9387 266.497 81.92 264.022 83.2C261.547 84.48 259.073 85.8453 256.598 87.296C254.209 88.6613 252.374 89.8987 251.094 91.008C249.387 92.544 248.15 94.0373 247.382 95.488C246.614 96.9387 246.23 98.3467 246.23 99.712C246.23 100.907 246.443 102.059 246.87 103.168C247.382 104.277 247.979 105.344 248.662 106.368C249.089 106.88 249.857 107.563 250.966 108.416C252.161 109.355 253.142 110.037 253.91 110.464ZM373.45 145.024C370.207 145.024 367.007 142.848 363.85 138.496C361.119 134.827 359.071 129.92 357.706 123.776C356.426 117.717 355.786 111.189 355.786 104.192C355.786 99.9253 355.999 95.616 356.426 91.264C356.938 86.8267 357.621 82.5173 358.474 78.336C357.706 79.7867 356.725 81.4933 355.53 83.456C354.421 85.3333 353.141 87.168 351.69 88.96C350.325 90.752 348.874 92.2453 347.338 93.44C345.887 94.5493 344.522 95.104 343.242 95.104C341.791 95.104 340.682 94.464 339.914 93.184C339.231 91.8187 338.89 90.1973 338.89 88.32C338.89 86.1013 339.231 83.5413 339.914 80.64C340.682 77.7387 341.663 74.7947 342.858 71.808C344.223 68.3947 345.802 65.2373 347.594 62.336C349.386 59.3493 351.263 56.96 353.226 55.168C355.189 53.2907 357.109 52.352 358.986 52.352C360.437 52.352 361.717 52.7787 362.826 53.632C364.021 54.4853 364.789 55.6373 365.13 57.088C366.325 54.6133 367.69 52.224 369.226 49.92C370.847 47.616 372.469 45.7387 374.09 44.288C375.711 42.8373 377.247 42.112 378.698 42.112C379.807 42.112 380.362 42.368 380.362 42.88C380.362 43.3067 379.978 43.52 379.21 43.52C377.845 43.52 376.522 44.3307 375.242 45.952C373.962 47.5733 372.725 49.664 371.53 52.224C370.421 54.6987 369.354 57.3013 368.33 60.032C367.391 62.7627 366.581 65.28 365.898 67.584C365.301 69.888 364.874 71.552 364.618 72.576C363.509 77.5253 362.399 83.2853 361.29 89.856C360.181 96.3413 359.626 102.912 359.626 109.568C359.626 114.432 360.01 119.125 360.778 123.648C361.631 128.256 363.125 132.395 365.258 136.064C367.306 139.733 369.226 141.568 371.018 141.568C372.213 141.568 373.151 140.629 373.834 138.752C374.602 136.875 375.029 134.101 375.114 130.432C375.199 125.312 375.029 120.576 374.602 116.224C374.261 111.957 373.493 107.648 372.298 103.296C371.189 98.944 369.525 94.208 367.306 89.088C367.05 88.4907 366.879 87.9787 366.794 87.552C366.709 87.1253 366.666 86.784 366.666 86.528C366.666 86.016 366.751 85.76 366.922 85.76C367.178 85.76 367.562 86.3147 368.074 87.424C369.269 90.0693 370.335 92.672 371.274 95.232C372.298 97.7067 373.237 100.224 374.09 102.784C376.309 109.269 377.887 114.944 378.826 119.808C379.765 124.672 380.234 128.811 380.234 132.224C380.234 136.661 379.594 139.904 378.314 141.952C377.034 144 375.413 145.024 373.45 145.024ZM344.906 92.544C345.589 92.544 346.527 91.9467 347.722 90.752C348.917 89.5573 350.282 87.936 351.818 85.888C353.781 83.2427 355.53 80.2133 357.066 76.8C358.602 73.3867 360.053 70.1013 361.418 66.944C361.759 66.176 362.058 65.4507 362.314 64.768C362.57 64 362.741 63.2747 362.826 62.592C362.826 62.2507 362.698 61.6533 362.442 60.8C362.271 59.9467 361.845 59.1787 361.162 58.496C360.479 57.728 359.285 57.344 357.578 57.344C355.701 57.344 353.994 58.1547 352.458 59.776C350.922 61.312 349.599 63.3173 348.49 65.792C347.466 68.1813 346.57 70.656 345.802 73.216C345.119 75.6053 344.522 78.1653 344.01 80.896C343.498 83.6267 343.242 86.1013 343.242 88.32C343.242 91.136 343.797 92.544 344.906 92.544ZM376.674 102.016C374.626 102.016 373.09 101.12 372.066 99.328C371.042 97.6213 370.53 95.4453 370.53 92.8C370.53 90.9227 370.914 88.576 371.682 85.76C372.45 82.944 373.517 80 374.882 76.928C376.247 73.856 377.783 70.9973 379.49 68.352C381.197 65.6213 382.946 63.4453 384.738 61.824C386.615 60.1173 388.45 59.264 390.242 59.264C391.693 59.264 392.717 59.8187 393.314 60.928C393.997 61.952 394.338 63.0613 394.338 64.256C394.338 65.28 394.125 66.2187 393.698 67.072C393.357 67.84 392.845 68.224 392.162 68.224C391.479 68.224 390.967 67.9253 390.626 67.328C390.37 66.6453 390.114 65.9627 389.858 65.28C389.687 64.5973 389.218 64.256 388.45 64.256C386.914 64.256 385.378 65.2373 383.842 67.2C382.306 69.1627 380.898 71.6373 379.618 74.624C378.338 77.6107 377.314 80.7253 376.546 83.968C375.778 87.1253 375.394 89.9413 375.394 92.416C375.394 94.208 375.607 95.616 376.034 96.64C376.546 97.7493 377.357 98.304 378.466 98.304C379.917 98.304 381.367 97.408 382.818 95.616C384.354 93.7387 385.847 91.3493 387.298 88.448C388.749 85.4613 390.071 82.3467 391.266 79.104C392.546 75.8613 393.613 72.832 394.466 70.016C395.405 67.1147 396.13 64.8107 396.642 63.104C397.325 57.1307 398.135 51.1147 399.074 45.056C400.098 38.9973 401.591 33.1093 403.554 27.392C403.81 26.4533 404.194 25.6427 404.706 24.96C405.303 24.2773 405.901 23.936 406.498 23.936C407.181 23.936 407.735 24.4053 408.162 25.344C408.674 26.2827 408.93 27.3493 408.93 28.544C408.93 29.4827 408.759 30.464 408.418 31.488C408.077 32.512 407.65 33.8773 407.138 35.584C406.541 37.632 405.773 40.3627 404.834 43.776C403.981 47.104 403.085 50.9013 402.146 55.168C401.207 59.3493 400.397 63.8293 399.714 68.608C399.117 73.3013 398.818 77.9947 398.818 82.688C398.818 86.272 399.074 88.7893 399.586 90.24C400.098 91.6907 400.781 92.416 401.634 92.416C402.573 92.416 403.597 91.8187 404.706 90.624C405.901 89.4293 407.053 87.9787 408.162 86.272C409.357 84.5653 410.423 82.8587 411.362 81.152C412.301 79.36 413.026 77.952 413.538 76.928C414.477 75.0507 415.202 74.112 415.714 74.112C416.055 74.112 416.226 74.496 416.226 75.264C416.226 75.8613 416.098 76.5013 415.842 77.184C415.33 78.2933 414.989 79.1467 414.818 79.744C414.647 80.256 414.434 80.768 414.178 81.28C414.007 81.792 413.581 82.6027 412.898 83.712C412.301 84.736 411.362 86.144 410.082 87.936C408.802 89.6427 407.351 91.2213 405.73 92.672C404.109 94.0373 402.487 94.72 400.866 94.72C399.245 94.72 398.007 94.0373 397.154 92.672C396.386 91.3067 395.874 89.5573 395.618 87.424C395.447 85.2053 395.362 82.944 395.362 80.64C395.362 77.824 395.49 74.8373 395.746 71.68C395.149 73.728 394.338 76.16 393.314 78.976C392.29 81.7067 391.138 84.48 389.858 87.296C388.578 90.112 387.213 92.672 385.762 94.976C384.567 96.8533 383.245 98.4747 381.794 99.84C380.343 101.291 378.637 102.016 376.674 102.016ZM413.257 94.976C411.892 94.976 410.74 94.2507 409.801 92.8C409.118 91.6053 408.777 90.1973 408.777 88.576C408.777 86.272 409.289 83.6693 410.313 80.768C411.337 77.8667 412.702 75.0507 414.409 72.32C416.201 69.5893 418.164 67.2853 420.297 65.408C422.516 63.4453 424.777 62.2933 427.081 61.952C427.934 61.8667 428.958 62.08 430.153 62.592C431.348 63.104 432.329 63.744 433.097 64.512C433.268 63.6587 433.396 62.848 433.481 62.08C433.566 61.2267 433.609 60.416 433.609 59.648C433.609 57.2587 433.225 55.1253 432.457 53.248C431.689 51.3707 430.324 50.1333 428.361 49.536C427.593 49.28 426.74 49.152 425.801 49.152C425.289 49.152 424.734 49.2373 424.137 49.408C423.54 49.4933 422.9 49.7493 422.217 50.176C421.534 50.5173 420.852 51.072 420.169 51.84C419.486 52.5227 419.017 53.1627 418.761 53.76C418.59 54.1013 418.164 54.8693 417.481 56.064C416.798 57.1733 416.244 57.6853 415.817 57.6C415.476 57.5147 415.305 57.216 415.305 56.704C415.305 56.448 415.39 56.064 415.561 55.552C416.073 53.9307 417.054 52.5653 418.505 51.456C419.956 50.2613 421.534 49.3227 423.241 48.64C424.948 47.872 426.356 47.4453 427.465 47.36C427.721 47.36 427.977 47.36 428.233 47.36C428.489 47.2747 428.702 47.232 428.873 47.232C430.238 47.232 431.476 47.4453 432.585 47.872C433.78 48.2133 434.718 48.6827 435.401 49.28C436.51 50.1333 437.406 51.2427 438.089 52.608C438.772 53.888 439.113 55.5093 439.113 57.472C439.113 58.0693 439.07 58.7093 438.985 59.392C438.9 60.0747 438.772 60.7573 438.601 61.44C438.345 62.8053 438.004 64.5547 437.577 66.688C437.236 68.736 436.852 70.8693 436.425 73.088C436.084 75.3067 435.785 77.3547 435.529 79.232C435.358 81.024 435.273 82.304 435.273 83.072C435.273 83.9253 435.529 84.9067 436.041 86.016C436.638 87.04 437.406 87.552 438.345 87.552C438.857 87.552 439.412 87.296 440.009 86.784C440.692 86.272 441.374 85.4187 442.057 84.224C442.484 83.5413 442.868 83.2 443.209 83.2C443.636 83.2 443.849 83.456 443.849 83.968C443.849 84.6507 443.508 85.4613 442.825 86.4C441.204 88.704 439.156 89.856 436.681 89.856C434.633 89.856 433.182 89.0027 432.329 87.296C430.878 84.48 430.153 81.9627 430.153 79.744C430.153 77.44 430.11 75.8613 430.025 75.008C429.598 76.032 428.788 77.6533 427.593 79.872C426.398 82.0053 424.99 84.2667 423.369 86.656C421.748 88.96 420.041 90.9227 418.249 92.544C416.457 94.1653 414.793 94.976 413.257 94.976ZM415.305 91.136C416.158 91.136 417.14 90.7093 418.249 89.856C419.444 89.0027 420.681 87.68 421.961 85.888C423.668 83.4133 425.246 80.64 426.697 77.568C428.148 74.496 429.47 71.5093 430.665 68.608C429.641 66.1333 428.361 64.896 426.825 64.896C425.46 64.896 424.009 65.6213 422.473 67.072C420.937 68.5227 419.486 70.1867 418.121 72.064C416.414 74.624 415.049 77.184 414.025 79.744C413.086 82.304 412.617 84.48 412.617 86.272C412.617 89.5147 413.513 91.136 415.305 91.136ZM453.839 101.504C452.73 101.504 451.919 101.12 451.407 100.352C450.98 99.6693 450.767 98.9867 450.767 98.304C450.767 96.9387 451.364 95.5307 452.559 94.08C452.986 93.568 453.583 92.8853 454.351 92.032C455.119 91.0933 455.674 90.368 456.015 89.856C454.906 88.32 453.412 86.912 451.535 85.632C449.658 84.352 447.823 82.7307 446.031 80.768C444.41 78.976 443.044 76.8 441.935 74.24C440.826 71.5947 440.271 69.0773 440.271 66.688C440.271 63.872 440.911 61.184 442.191 58.624C443.471 56.064 445.05 53.8453 446.927 51.968C448.975 49.92 451.236 48.2987 453.711 47.104C456.186 45.824 458.746 45.184 461.391 45.184C463.183 45.184 464.932 45.6107 466.639 46.464C468.346 47.3173 469.199 48.7253 469.199 50.688C469.199 52.992 468.687 54.144 467.663 54.144C467.236 54.144 466.938 53.7173 466.767 52.864C466.682 52.4373 466.639 52.0107 466.639 51.584C466.639 51.072 466.639 50.7307 466.639 50.56C466.639 49.7067 466.255 48.9813 465.487 48.384C464.719 47.7013 463.866 47.36 462.927 47.36C460.964 47.36 458.788 48.128 456.399 49.664C454.01 51.2 452.004 52.992 450.383 55.04C448.762 57.1733 447.439 59.6053 446.415 62.336C445.391 64.9813 444.879 67.5413 444.879 70.016C444.879 73.088 445.562 75.7333 446.927 77.952C448.292 80.1707 449.914 82.1333 451.791 83.84C453.754 85.5467 455.503 87.2107 457.039 88.832C457.807 87.8933 458.618 86.9973 459.471 86.144C460.41 85.2907 461.263 84.608 462.031 84.096C462.714 83.6693 463.183 83.456 463.439 83.456C463.695 83.456 463.823 83.584 463.823 83.84C463.823 84.2667 463.439 84.7787 462.671 85.376C462.5 85.5467 461.988 86.0587 461.135 86.912C460.367 87.68 459.428 88.6613 458.319 89.856C459.002 90.624 459.556 91.4347 459.983 92.288C460.41 93.1413 460.623 94.08 460.623 95.104C460.623 96.4693 459.855 97.8773 458.319 99.328C456.783 100.779 455.29 101.504 453.839 101.504ZM455.247 98.048C455.844 98.048 456.399 97.4933 456.911 96.384C457.508 95.36 457.807 94.336 457.807 93.312C457.807 92.8 457.722 92.3307 457.551 91.904C457.38 91.4773 457.252 91.2213 457.167 91.136C456.484 91.9893 455.844 92.928 455.247 93.952C454.735 94.8907 454.479 95.744 454.479 96.512C454.479 97.536 454.735 98.048 455.247 98.048ZM488.287 125.312C486.41 125.397 484.959 125.056 483.935 124.288C482.826 123.52 482.442 122.069 482.783 119.936C482.783 119.68 482.868 119.296 483.039 118.784C483.21 118.272 483.423 117.931 483.679 117.76C483.594 119.893 483.85 121.387 484.447 122.24C485.044 123.093 486.026 123.52 487.391 123.52C490.719 123.52 494.132 122.453 497.631 120.32C501.215 118.187 504.756 115.328 508.255 111.744C507.402 111.488 506.292 110.976 504.927 110.208C503.647 109.525 502.666 108.971 501.983 108.544C498.57 106.069 496.863 103.211 496.863 99.968C496.863 97.4933 497.972 94.8053 500.191 91.904C502.41 89.0027 506.036 86.0587 511.071 83.072C514.314 81.1093 518.068 79.36 522.335 77.824C526.602 76.288 530.57 75.0507 534.239 74.112C535.519 71.6373 536.756 69.2053 537.951 66.816C539.146 64.4267 540.298 62.0373 541.407 59.648C541.834 58.7093 542.602 56.9173 543.711 54.272C544.82 51.6267 546.058 48.512 547.423 44.928C548.788 41.344 550.068 37.5467 551.263 33.536C552.543 29.44 553.61 25.472 554.463 21.632C555.316 17.792 555.743 14.3787 555.743 11.392C555.743 8.49066 555.231 6.22933 554.207 4.60799C553.268 2.98666 551.562 2.17599 549.087 2.17599H548.959C548.276 2.17599 547.935 1.96266 547.935 1.536C547.935 1.10933 548.362 0.810661 549.215 0.639992C553.311 0.213326 556.17 1.19466 557.791 3.58399C559.412 5.97333 560.223 9.13067 560.223 13.056C560.223 13.7387 560.18 14.464 560.095 15.232C560.095 16 560.052 16.8107 559.967 17.664C560.479 18.0907 560.82 18.816 560.991 19.84C561.503 22.5707 562.015 26.1547 562.527 30.592C563.124 35.0293 563.807 39.8933 564.575 45.184C565.343 50.4747 566.239 55.8507 567.263 61.312C568.372 66.688 569.652 71.7653 571.103 76.544C572.639 81.2373 574.431 85.2053 576.479 88.448C576.906 89.1307 577.503 90.0267 578.271 91.136C579.039 92.16 579.978 93.0987 581.087 93.952C582.196 94.8053 583.434 95.232 584.799 95.232C586.25 95.232 587.743 94.6347 589.279 93.44C590.644 92.3307 591.924 90.7947 593.119 88.832C594.314 86.8693 595.423 84.7787 596.447 82.56C596.959 81.6213 597.428 81.152 597.855 81.152C598.282 81.152 598.58 81.408 598.751 81.92C599.007 82.3467 599.092 82.7733 599.007 83.2C598.666 84.3093 597.94 85.632 596.831 87.168C595.807 88.6187 594.74 89.984 593.631 91.264C592.522 92.4587 591.626 93.312 590.943 93.824C589.407 95.0187 587.914 95.872 586.463 96.384C585.098 96.9813 583.818 97.28 582.623 97.28C579.807 97.28 577.332 96.2133 575.199 94.08C573.151 91.8613 571.359 89.5573 569.823 87.168C567.69 83.7547 565.983 79.4453 564.703 74.24C563.508 69.0347 562.57 63.4027 561.887 57.344C561.204 51.2853 560.65 45.312 560.223 39.424C559.882 33.536 559.498 28.16 559.071 23.296C558.047 28.0747 556.639 32.9813 554.847 38.016C553.055 43.0507 551.22 47.7013 549.343 51.968C547.551 56.1493 546.058 59.392 544.863 61.696C542.986 65.536 540.938 69.376 538.719 73.216C542.644 72.2773 546.74 71.424 551.007 70.656C555.274 69.888 559.028 69.1627 562.271 68.48H562.655C562.996 68.48 563.167 68.608 563.167 68.864C563.167 69.12 562.954 69.4613 562.527 69.888C562.1 70.3147 561.546 70.6133 560.863 70.784C557.194 71.4667 553.226 72.2773 548.959 73.216C544.692 74.0693 540.682 75.008 536.927 76.032C533.002 82.7733 529.034 89.1733 525.023 95.232C521.012 101.291 516.618 106.667 511.839 111.36C515.082 112.384 519.22 112.896 524.255 112.896H524.511C525.194 112.896 525.535 113.067 525.535 113.408C525.535 113.92 525.023 114.176 523.999 114.176C521.61 114.261 519.263 114.133 516.959 113.792C514.655 113.536 512.522 113.109 510.559 112.512C506.804 116.181 503.007 119.125 499.167 121.344C495.412 123.648 491.786 124.971 488.287 125.312ZM509.535 110.464C513.631 106.197 517.599 101.205 521.439 95.488C525.364 89.7707 529.034 83.7973 532.447 77.568C531.338 77.9093 530.186 78.2933 528.991 78.72C527.796 79.1467 526.644 79.6587 525.535 80.256C524.084 80.9387 522.122 81.92 519.647 83.2C517.172 84.48 514.698 85.8453 512.223 87.296C509.834 88.6613 507.999 89.8987 506.719 91.008C505.012 92.544 503.775 94.0373 503.007 95.488C502.239 96.9387 501.855 98.3467 501.855 99.712C501.855 100.907 502.068 102.059 502.495 103.168C503.007 104.277 503.604 105.344 504.287 106.368C504.714 106.88 505.482 107.563 506.591 108.416C507.786 109.355 508.767 110.037 509.535 110.464ZM608.339 101.504C607.23 101.504 606.419 101.12 605.907 100.352C605.48 99.6693 605.267 98.9867 605.267 98.304C605.267 96.9387 605.864 95.5307 607.059 94.08C607.486 93.568 608.083 92.8853 608.851 92.032C609.619 91.0933 610.174 90.368 610.515 89.856C609.406 88.32 607.912 86.912 606.035 85.632C604.158 84.352 602.323 82.7307 600.531 80.768C598.91 78.976 597.544 76.8 596.435 74.24C595.326 71.5947 594.771 69.0773 594.771 66.688C594.771 63.872 595.411 61.184 596.691 58.624C597.971 56.064 599.55 53.8453 601.427 51.968C603.475 49.92 605.736 48.2987 608.211 47.104C610.686 45.824 613.246 45.184 615.891 45.184C617.683 45.184 619.432 45.6107 621.139 46.464C622.846 47.3173 623.699 48.7253 623.699 50.688C623.699 52.992 623.187 54.144 622.163 54.144C621.736 54.144 621.438 53.7173 621.267 52.864C621.182 52.4373 621.139 52.0107 621.139 51.584C621.139 51.072 621.139 50.7307 621.139 50.56C621.139 49.7067 620.755 48.9813 619.987 48.384C619.219 47.7013 618.366 47.36 617.427 47.36C615.464 47.36 613.288 48.128 610.899 49.664C608.51 51.2 606.504 52.992 604.883 55.04C603.262 57.1733 601.939 59.6053 600.915 62.336C599.891 64.9813 599.379 67.5413 599.379 70.016C599.379 73.088 600.062 75.7333 601.427 77.952C602.792 80.1707 604.414 82.1333 606.291 83.84C608.254 85.5467 610.003 87.2107 611.539 88.832C612.307 87.8933 613.118 86.9973 613.971 86.144C614.91 85.2907 615.763 84.608 616.531 84.096C617.214 83.6693 617.683 83.456 617.939 83.456C618.195 83.456 618.323 83.584 618.323 83.84C618.323 84.2667 617.939 84.7787 617.171 85.376C617 85.5467 616.488 86.0587 615.635 86.912C614.867 87.68 613.928 88.6613 612.819 89.856C613.502 90.624 614.056 91.4347 614.483 92.288C614.91 93.1413 615.123 94.08 615.123 95.104C615.123 96.4693 614.355 97.8773 612.819 99.328C611.283 100.779 609.79 101.504 608.339 101.504ZM609.747 98.048C610.344 98.048 610.899 97.4933 611.411 96.384C612.008 95.36 612.307 94.336 612.307 93.312C612.307 92.8 612.222 92.3307 612.051 91.904C611.88 91.4773 611.752 91.2213 611.667 91.136C610.984 91.9893 610.344 92.928 609.747 93.952C609.235 94.8907 608.979 95.744 608.979 96.512C608.979 97.536 609.235 98.048 609.747 98.048ZM639.265 53.248C638.497 53.248 637.942 52.864 637.601 52.096C637.345 51.2427 637.217 50.6453 637.217 50.304C637.217 48.9387 637.601 47.6587 638.369 46.464C639.222 45.184 640.161 44.5013 641.185 44.416H641.569C642.593 44.416 643.276 44.672 643.617 45.184C644.044 45.6107 644.257 46.1653 644.257 46.848C644.257 48.128 643.702 49.536 642.593 51.072C641.484 52.5227 640.374 53.248 639.265 53.248ZM632.737 99.072C629.836 99.072 627.873 97.9627 626.849 95.744C625.825 93.5253 625.313 90.9653 625.313 88.064C625.313 85.1627 625.612 82.1333 626.209 78.976C626.892 75.7333 627.617 72.7893 628.385 70.144C629.238 67.4987 629.878 65.6213 630.305 64.512C631.244 62.5493 632.182 60.8853 633.121 59.52C634.06 58.0693 635.084 57.344 636.193 57.344C636.961 57.344 637.516 57.6427 637.857 58.24C638.284 58.752 638.497 59.4347 638.497 60.288C638.497 61.9947 638.028 63.744 637.089 65.536C636.15 67.2427 635.297 68.864 634.529 70.4C632.822 73.8987 631.457 77.0133 630.433 79.744C629.494 82.4747 629.025 85.888 629.025 89.984C629.025 92.6293 629.281 94.5493 629.793 95.744C630.39 96.9387 631.201 97.536 632.225 97.536C633.59 97.536 635.169 96.768 636.961 95.232C638.753 93.6107 640.588 91.4773 642.465 88.832C644.342 86.1867 646.006 83.328 647.457 80.256C648.396 78.2933 649.121 77.312 649.633 77.312C649.974 77.312 650.145 77.6533 650.145 78.336C650.145 79.2747 649.761 80.64 648.993 82.432C648.31 84.1387 647.457 85.888 646.433 87.68C645.494 89.472 644.598 90.88 643.745 91.904C642.294 93.7813 640.63 95.4453 638.753 96.896C636.876 98.3467 634.87 99.072 632.737 99.072ZM680.233 118.4C678.356 118.4 676.905 117.589 675.881 115.968C674.942 114.347 674.473 112.469 674.473 110.336C674.473 107.776 674.942 104.832 675.881 101.504C676.82 98.2613 678.014 94.9333 679.465 91.52C680.916 88.0213 682.409 84.6507 683.945 81.408C685.566 78.1653 686.974 75.264 688.169 72.704C689.449 70.144 690.302 68.1813 690.729 66.816C691.241 65.28 691.497 64.128 691.497 63.36C691.497 62.5067 691.198 62.08 690.601 62.08C689.918 62.08 688.894 62.6347 687.529 63.744C686.249 64.768 685.012 65.92 683.817 67.2C682.622 68.48 681.769 69.4187 681.257 70.016C678.441 73.088 675.966 76.5013 673.833 80.256C671.7 84.0107 670.334 87.2107 669.737 89.856C669.652 90.2827 669.524 91.0507 669.353 92.16C669.182 93.184 668.798 93.696 668.201 93.696C667.604 93.696 667.134 93.3973 666.793 92.8C666.537 92.2027 666.366 91.5627 666.281 90.88C666.196 90.4533 666.11 89.6427 666.025 88.448C666.025 87.168 666.025 86.2293 666.025 85.632C666.025 81.9627 666.409 78.2933 667.177 74.624C667.945 70.8693 668.798 67.2853 669.737 63.872C670.761 60.3733 671.657 57.1733 672.425 54.272C673.193 51.3707 673.577 48.896 673.577 46.848C673.577 45.4827 673.321 44.3733 672.809 43.52C672.382 42.5813 671.828 42.112 671.145 42.112C670.121 42.112 668.926 42.9653 667.561 44.672C666.281 46.3787 664.958 48.6827 663.593 51.584C662.228 54.4853 660.948 57.6853 659.753 61.184C658.644 64.6827 657.705 68.224 656.937 71.808C656.254 75.392 655.913 78.7627 655.913 81.92C655.913 83.712 656.041 85.5467 656.297 87.424C656.638 89.3013 656.809 90.9653 656.809 92.416C656.809 93.5253 656.638 94.336 656.297 94.848C656.041 95.36 655.358 95.616 654.249 95.616C652.201 95.616 650.921 93.6107 650.409 89.6C649.812 86.1013 649.172 82.1333 648.489 77.696C647.892 73.2587 647.124 69.3333 646.185 65.92C645.929 64.9813 645.63 64 645.289 62.976C644.948 61.952 644.308 61.0133 643.369 60.16C643.284 59.9893 643.07 59.8187 642.729 59.648C642.388 59.4773 642.217 59.3067 642.217 59.136C642.217 58.7947 642.686 58.624 643.625 58.624C644.905 58.624 646.1 59.3493 647.209 60.8C648.318 62.1653 649.3 63.872 650.153 65.92C651.006 67.968 651.732 70.016 652.329 72.064C653.012 74.0267 653.524 75.6053 653.865 76.8C654.633 72.1067 655.486 67.84 656.425 64C657.364 60.0747 658.558 56.2773 660.009 52.608C661.033 50.1333 662.228 47.744 663.593 45.44C664.958 43.136 666.494 41.2587 668.201 39.808C669.908 38.272 671.7 37.504 673.577 37.504C674.772 37.504 676.18 38.144 677.801 39.424C679.508 40.704 680.361 42.752 680.361 45.568C680.361 46.848 680.02 48.384 679.337 50.176C678.74 51.8827 678.057 53.8027 677.289 55.936C676.18 58.9227 674.985 62.2933 673.705 66.048C672.425 69.7173 671.316 73.088 670.377 76.16C669.438 79.232 668.884 81.3653 668.713 82.56C668.542 83.9253 668.414 85.0773 668.329 86.016C668.329 86.8693 668.329 87.68 668.329 88.448C668.841 86.2293 669.95 83.6693 671.657 80.768C673.449 77.7813 675.07 75.264 676.521 73.216C678.142 70.912 679.849 68.736 681.641 66.688C683.518 64.5547 685.438 62.848 687.401 61.568C689.449 60.2027 691.454 59.52 693.417 59.52C694.356 59.52 695.166 59.776 695.849 60.288C696.532 60.8 696.873 61.7813 696.873 63.232C696.873 65.1947 696.233 67.456 694.953 70.016C693.758 72.4907 692.265 75.0507 690.473 77.696C688.766 80.256 687.188 82.7733 685.737 85.248C683.86 88.4907 682.11 91.9893 680.489 95.744C678.953 99.4133 678.185 103.211 678.185 107.136C678.185 110.379 678.569 112.725 679.337 114.176C680.19 115.627 681.086 116.352 682.025 116.352C682.622 116.352 683.22 116.139 683.817 115.712C684.5 115.285 685.054 114.901 685.481 114.56C685.652 114.389 685.908 114.133 686.249 113.792C686.59 113.536 686.889 113.408 687.145 113.408C687.486 113.408 687.529 113.749 687.273 114.432C687.188 114.773 686.932 115.115 686.505 115.456C686.078 115.883 685.78 116.181 685.609 116.352C683.988 117.717 682.196 118.4 680.233 118.4Z" fill="#13181D"/>
</svg>
